<?xml version="1.0" encoding="utf-8"?>
<!-- Generator: Adobe Illustrator 21.0.0, SVG Export Plug-In . SVG Version: 6.00 Build 0)  -->
<svg version="1.1" id="Capa_1" xmlns="http://www.w3.org/2000/svg" xmlns:xlink="http://www.w3.org/1999/xlink" x="0px" y="0px"
	 viewBox="0 0 418.3 349.4" style="enable-background:new 0 0 418.3 349.4;" xml:space="preserve">
<style type="text/css">
	.st0{fill:#fff;}
	.st1{fill:#5697FB;}
	.st2{display:none;}
	.st3{display:inline;fill:#fff;}
	.st4{display:inline;}
	.st5{fill:#FFFFFF;}
	.st6{display:inline;fill:#5697FB;}
	.st7{display:inline;fill:#070707;}
	.st8{fill:#565656;}
	.st9{display:inline;fill:#565656;}
	.st10{display:inline;fill:#FFE000;}
	.st11{fill:#5294FF;}
	.st12{display:inline;fill:#FF0000;}
	.st13{display:inline;fill:#5294FF;}
	.st14{display:inline;fill:#E7FF00;}
	.st15{display:inline;fill:#FF7300;}
</style>
<path class="st0" d="M312,0C215.4-0.1,118.8,0,22.1,0H0c28.7,25.7,52.7,48.4,78.1,69.4c7.7,6.4,19.2,11.2,29.1,11.3
	c65.3,1,130.6,0.3,195.9,0.6c20.5,0.1,32.1,11.3,31.8,28.9c-0.2,16.4-9.6,23.8-31,23.9c-39.8,0.2-79.7-0.7-119.5,0.3
	c-63.6,1.6-98.7,30.4-113.9,92.3c-10,40.6-8.1,81.5,0.6,122.7c0.4-5.8,0.6-11.6,1.1-17.4c6-64.1,41.1-106.8,100.1-119.8
	c17-3.8,34.9-4.8,52.4-5.3c32-0.8,64,0.3,96-0.4c48.8-1,82.5-27.8,93.8-73.5C432.2,61.9,384.7,0.1,312,0z M366.6,77.7l-6.3,33.7
	l-6.3-33.7l-28.7-6.3l28.7-6.3l6.3-33.7l6.3,33.7l28.7,6.3L366.6,77.7z"/>
</svg>
