<?xml version="1.0" encoding="utf-8"?>
<!-- Generator: Adobe Illustrator 21.0.0, SVG Export Plug-In . SVG Version: 6.00 Build 0)  -->
<svg version="1.1" id="Capa_1" xmlns="http://www.w3.org/2000/svg" xmlns:xlink="http://www.w3.org/1999/xlink" x="0px" y="0px"
	 viewBox="0 0 636.3 104.7" style="enable-background:new 0 0 636.3 104.7;" xml:space="preserve">
<style type="text/css">
	.st0{fill:#fff;}
	.st1{fill:#0095f8;}
	.st2{display:none;}
	.st3{display:inline;fill:#fff;}
	.st4{display:inline;}
	.st5{fill:#FFFFFF;}
	.st6{display:inline;fill:#0095f8;}
	.st7{display:inline;fill:#070707;}
	.st8{fill:#565656;}
	.st9{display:inline;fill:#565656;}
	.st10{display:inline;fill:#FFE000;}
	.st11{fill:#0095f8;}
	.st12{display:inline;fill:#FF0000;}
	.st13{display:inline;fill:#0095f8;}
	.st14{display:inline;fill:#E7FF00;}
	.st15{display:inline;fill:#FF7300;}
</style>
<g>
	<path class="st0" d="M625.2,37.2C617.8,29.7,608.9,26,598,26c-10.9,0-19.7,4.1-27,11.6c-7.4,7.5-10.9,16.6-10.9,27.7
		c0,11.1,3.6,20.2,10.9,27.8c7,7.2,15.4,11.1,25.6,11.5c0.5,0,11.5,0,12,0c1.9,0,3.3-0.5,4.4-1.6c1.1-1.1,1.6-2.5,1.6-4.5
		c0-1.9-0.5-3.3-1.5-4.4c-1.1-1.1-2.5-1.6-4.4-1.6c-0.5,0-11.5,0-12,0c-6.6-0.3-12.4-3.2-17.1-8.1c-5.1-5.2-7.6-11.7-7.6-19.1
		c0-7.4,2.6-13.8,7.6-19c5.1-5.2,11.3-8.3,18.5-8.3c7.2,0,13.5,2.6,18.6,7.8c5.2,5.2,7.8,12.1,7.8,19.5v33.4c0,2,0.5,3.4,1.5,4.4
		c1,1.1,2.4,1.6,4.3,1.6c1.9,0,3.3-0.5,4.4-1.6c1.1-1,1.5-2.4,1.5-4.4V65.4C636.3,54.3,632.6,44.8,625.2,37.2z"/>
	<path class="st1" d="M120.4,104.5c-15,0-27.2-12.2-27.2-27.2V32.7c0-3.7,3-6.6,6.6-6.6s6.6,3,6.6,6.6v44.6
		c0,7.7,6.2,13.9,13.9,13.9c7.7,0,13.9-6.2,13.9-13.9V32.7c0-3.7,3-6.6,6.6-6.6s6.6,3,6.6,6.6v44.6
		C147.6,92.3,135.4,104.5,120.4,104.5z"/>
	<path class="st1" d="M195.6,104.7c-19,0-34.5-15.6-34.5-34.7V6.6c0-3.7,3-6.6,6.6-6.6s6.6,3,6.6,6.6V70c0,11.8,9.5,21.4,21.2,21.4
		c11.7,0,21.3-9.6,21.3-21.3c0-11.7-9.6-21.3-21.3-21.3c-3.7,0-6.6-3-6.6-6.6s3-6.6,6.6-6.6c19.1,0,34.6,15.5,34.6,34.6
		S214.6,104.7,195.6,104.7z"/>
	<path class="st0" d="M475,104.5c-17.1,0-31.1-13.9-31.1-31.1V6.6c0-3.7,3-6.6,6.6-6.6c3.7,0,6.6,3,6.6,6.6v66.8
		c0,9.8,8,17.8,17.8,17.8c3.7,0,6.6,3,6.6,6.6C481.6,101.5,478.6,104.5,475,104.5z"/>
	<path class="st0" d="M468.1,39.3h-34.1c-3.7,0-6.6-3-6.6-6.6s3-6.6,6.6-6.6h34.1c3.7,0,6.6,3,6.6,6.6S471.7,39.3,468.1,39.3z"/>
	<path class="st1" d="M250.2,104.7c-3.7,0-6.6-3-6.6-6.6V6.6c0-3.7,3-6.6,6.6-6.6c3.7,0,6.6,3,6.6,6.6v91.5
		C256.8,101.8,253.9,104.7,250.2,104.7z"/>
	<path class="st0" d="M405,104.5c-3.7,0-6.6-3-6.6-6.6V6.7c0-3.7,3-6.6,6.6-6.6s6.6,3,6.6,6.6v91.2
		C411.6,101.5,408.6,104.5,405,104.5z"/>
	<path class="st1" d="M294.4,104.7c-12.9,0-23.4-10-23.4-22.9V32.7c0-3.7,3-6.6,6.6-6.6s6.6,3,6.6,6.6v49.2c0,5.6,4.5,9.6,10.1,9.6
		c3.7,0,6.6,3,6.6,6.6C301.1,101.8,298.1,104.7,294.4,104.7z"/>
	<path class="st1" d="M284.3,6.6c0,3.7-3,6.6-6.6,6.6c-3.7,0-6.6-3-6.6-6.6c0-3.7,3-6.6,6.6-6.6C281.3,0,284.3,3,284.3,6.6"/>
	<path class="st0" d="M381.7,0L378.6,1c-2.6,0.9-5,2.5-7.1,4.9c-2.6,3-3.9,6.8-3.9,12c0,2.6,0.3,9.1,0.3,9.1l0,0
		c0.3,8,1,36.6,0,46.5c-0.9,8.7-8.8,17.8-20.4,17.8c-11.2,0-20.4-7.7-20.4-17.1V32.7c0-3.7-3-6.6-6.6-6.6s-6.6,3-6.6,6.6v41.5
		c0,16.7,15.1,30.3,33.6,30.3c17.3,0,32.3-12.7,33.8-29.6C382.1,66.1,381.7,0,381.7,0z"/>
	<path class="st1" d="M6.6,104.7c-3.7,0-6.6-3-6.6-6.6l0-1.6c0-14.1-0.1-37.8,26.9-52.4c8.3-4.5,17.1-5.7,24.2-6.7
		c13.4-1.8,15.7-2.9,15.7-11.4c0-4-1-6.9-2.9-8.8c-4.1-4-12.3-4-16.3-4c-0.9,0-1.6,0-2.2,0c-1.2,0-23.9,0-38.8,0h0
		C3,13.2,0,10.3,0,6.6C0,3,3,0,6.6,0C20.9,0,45,0,46,0c0.4,0,0.9,0,1.6,0c5.8,0,17.7-0.1,25.7,7.8c4.5,4.5,6.8,10.6,6.8,18.2
		c0,20.7-15.7,22.9-27.2,24.5c-6.6,0.9-13.5,1.9-19.6,5.2c-20.1,10.9-20,27.5-20,40.8l0,1.6C13.3,101.8,10.3,104.7,6.6,104.7
		L6.6,104.7z"/>
	<path class="st0" d="M513,26.8c-7.8,1.6-14.2,6.9-16.8,14.5c-1.7,5-1.1,10.3-1.2,15.5v41.1c0,3.7,3,6.6,6.6,6.6l0,0
		c3.7,0,6.6-3,6.6-6.6V55.1c0-0.1,0-0.1,0-0.2c0-2,0-4,0-5.9c0-0.5,0.2-2.2,0.1-2.1c0.6-3,2.1-5.3,5.5-6.7c5.2-2,19-1.9,19.4,5.9
		c0.4,8.5,13.7,8.6,13.3,0C545.9,29.4,527.1,23.8,513,26.8z"/>
</g>
</svg>
